<?xml version="1.0" standalone="no"?>
<!DOCTYPE svg PUBLIC "-//W3C//DTD SVG 20010904//EN"
 "http://www.w3.org/TR/2001/REC-SVG-20010904/DTD/svg10.dtd">
<svg version="1.0" xmlns="http://www.w3.org/2000/svg"
 width="213.000000pt" height="213.000000pt" viewBox="0 0 213.000000 213.000000"
 preserveAspectRatio="xMidYMid meet">
<metadata>
Created by potrace 1.14, written by Peter Selinger 2001-2017
</metadata>
<g transform="translate(0.000000,213.000000) scale(0.100000,-0.100000)"
fill="#000000" stroke="none">
<path d="M845 2029 c-72 -10 -189 -41 -265 -70 -60 -22 -188 -87 -206 -104 -7
-5 -31 -26 -55 -45 -116 -94 -190 -190 -238 -312 -79 -198 -62 -399 44 -511
51 -53 155 -106 241 -122 16 -2 40 -7 54 -10 14 -3 44 -7 68 -10 23 -3 63 -7
89 -10 136 -17 167 -114 102 -320 -36 -118 -46 -207 -29 -261 19 -60 61 -110
108 -133 41 -20 56 -21 418 -18 l376 2 28 32 c37 41 33 71 -25 186 -25 48 -45
98 -45 110 0 32 14 49 34 41 48 -18 199 -41 266 -39 151 3 240 75 273 223 30
131 1 259 -88 397 l-33 50 13 61 c29 138 -15 328 -106 461 -138 201 -367 341
-649 394 -71 14 -298 18 -375 8z"/>
</g>
</svg>
